<mxfile host="app.diagrams.net" modified="2023-11-20T20:28:31.170Z" agent="Mozilla/5.0 (Windows NT 10.0; Win64; x64) AppleWebKit/537.36 (KHTML, like Gecko) Chrome/119.0.0.0 Safari/537.36 Edg/119.0.0.0" etag="KsJTm5V63G-UCCiF3rcf" version="22.1.3" type="google">
  <diagram name="Pàgina-1" id="-f-s4E9bShH8OIkEAMrC">
    <mxGraphModel dx="1386" dy="793" grid="1" gridSize="10" guides="1" tooltips="1" connect="1" arrows="1" fold="1" page="1" pageScale="1" pageWidth="827" pageHeight="1169" math="0" shadow="0">
      <root>
        <mxCell id="0" />
        <mxCell id="1" parent="0" />
        <mxCell id="hcxAE1E8VKAEERCTuCJa-1" style="edgeStyle=orthogonalEdgeStyle;rounded=0;orthogonalLoop=1;jettySize=auto;html=1;entryX=0.5;entryY=0;entryDx=0;entryDy=0;" edge="1" parent="1" source="hcxAE1E8VKAEERCTuCJa-2" target="hcxAE1E8VKAEERCTuCJa-6">
          <mxGeometry relative="1" as="geometry">
            <Array as="points">
              <mxPoint x="583" y="210" />
            </Array>
          </mxGeometry>
        </mxCell>
        <mxCell id="hcxAE1E8VKAEERCTuCJa-2" value="Seleccionar opció &lt;br&gt;Fer Demanat" style="rounded=1;whiteSpace=wrap;html=1;fontSize=12;glass=0;strokeWidth=1;shadow=0;" vertex="1" parent="1">
          <mxGeometry x="196" y="190" width="120" height="40" as="geometry" />
        </mxCell>
        <mxCell id="hcxAE1E8VKAEERCTuCJa-3" style="edgeStyle=orthogonalEdgeStyle;rounded=0;orthogonalLoop=1;jettySize=auto;html=1;entryX=1;entryY=0.5;entryDx=0;entryDy=0;" edge="1" parent="1" source="hcxAE1E8VKAEERCTuCJa-4" target="hcxAE1E8VKAEERCTuCJa-19">
          <mxGeometry relative="1" as="geometry" />
        </mxCell>
        <mxCell id="hcxAE1E8VKAEERCTuCJa-4" value="" style="ellipse;whiteSpace=wrap;html=1;aspect=fixed;fillColor=#000000;" vertex="1" parent="1">
          <mxGeometry x="990" y="150" width="40" height="40" as="geometry" />
        </mxCell>
        <mxCell id="hcxAE1E8VKAEERCTuCJa-44" style="edgeStyle=orthogonalEdgeStyle;rounded=0;orthogonalLoop=1;jettySize=auto;html=1;entryX=0.5;entryY=0;entryDx=0;entryDy=0;" edge="1" parent="1" source="hcxAE1E8VKAEERCTuCJa-6" target="hcxAE1E8VKAEERCTuCJa-37">
          <mxGeometry relative="1" as="geometry">
            <Array as="points">
              <mxPoint x="770" y="250" />
              <mxPoint x="770" y="250" />
            </Array>
          </mxGeometry>
        </mxCell>
        <mxCell id="hcxAE1E8VKAEERCTuCJa-6" value="Elecció de les 5 peces de roba" style="rounded=1;whiteSpace=wrap;html=1;fontSize=12;glass=0;strokeWidth=1;shadow=0;" vertex="1" parent="1">
          <mxGeometry x="523" y="230" width="120" height="40" as="geometry" />
        </mxCell>
        <mxCell id="hcxAE1E8VKAEERCTuCJa-11" value="" style="ellipse;whiteSpace=wrap;html=1;aspect=fixed;fillColor=#000000;" vertex="1" parent="1">
          <mxGeometry x="874" y="1040" width="40" height="40" as="geometry" />
        </mxCell>
        <mxCell id="hcxAE1E8VKAEERCTuCJa-12" value="" style="ellipse;whiteSpace=wrap;html=1;aspect=fixed;fillColor=none;strokeWidth=3;" vertex="1" parent="1">
          <mxGeometry x="864" y="1030" width="60" height="60" as="geometry" />
        </mxCell>
        <mxCell id="hcxAE1E8VKAEERCTuCJa-16" value="Client" style="rounded=0;whiteSpace=wrap;html=1;" vertex="1" parent="1">
          <mxGeometry x="93" y="90" width="320" height="20" as="geometry" />
        </mxCell>
        <mxCell id="hcxAE1E8VKAEERCTuCJa-17" value="Sistema" style="rounded=0;whiteSpace=wrap;html=1;" vertex="1" parent="1">
          <mxGeometry x="734" y="90" width="356" height="20" as="geometry" />
        </mxCell>
        <mxCell id="hcxAE1E8VKAEERCTuCJa-18" style="edgeStyle=orthogonalEdgeStyle;rounded=0;orthogonalLoop=1;jettySize=auto;html=1;entryX=0.5;entryY=0;entryDx=0;entryDy=0;" edge="1" parent="1" source="hcxAE1E8VKAEERCTuCJa-19" target="hcxAE1E8VKAEERCTuCJa-2">
          <mxGeometry relative="1" as="geometry" />
        </mxCell>
        <mxCell id="hcxAE1E8VKAEERCTuCJa-19" value="Mostrar opcions&amp;nbsp;" style="rounded=1;whiteSpace=wrap;html=1;fontSize=12;glass=0;strokeWidth=1;shadow=0;" vertex="1" parent="1">
          <mxGeometry x="827" y="150" width="120" height="40" as="geometry" />
        </mxCell>
        <mxCell id="hcxAE1E8VKAEERCTuCJa-20" value="" style="endArrow=none;html=1;rounded=0;entryX=0;entryY=1;entryDx=0;entryDy=0;" edge="1" parent="1" target="hcxAE1E8VKAEERCTuCJa-17">
          <mxGeometry width="50" height="50" relative="1" as="geometry">
            <mxPoint x="730" y="1080" as="sourcePoint" />
            <mxPoint x="583" y="370" as="targetPoint" />
          </mxGeometry>
        </mxCell>
        <mxCell id="hcxAE1E8VKAEERCTuCJa-23" value="" style="endArrow=none;html=1;rounded=0;entryX=1;entryY=0.75;entryDx=0;entryDy=0;" edge="1" parent="1" target="hcxAE1E8VKAEERCTuCJa-17">
          <mxGeometry width="50" height="50" relative="1" as="geometry">
            <mxPoint x="1080" y="1080" as="sourcePoint" />
            <mxPoint x="423" y="120" as="targetPoint" />
            <Array as="points" />
          </mxGeometry>
        </mxCell>
        <mxCell id="hcxAE1E8VKAEERCTuCJa-24" value="" style="endArrow=none;html=1;rounded=0;exitX=0;exitY=1;exitDx=0;exitDy=0;" edge="1" parent="1" source="hcxAE1E8VKAEERCTuCJa-16">
          <mxGeometry width="50" height="50" relative="1" as="geometry">
            <mxPoint x="533" y="440" as="sourcePoint" />
            <mxPoint x="90" y="1080" as="targetPoint" />
          </mxGeometry>
        </mxCell>
        <mxCell id="hcxAE1E8VKAEERCTuCJa-28" style="edgeStyle=orthogonalEdgeStyle;rounded=0;orthogonalLoop=1;jettySize=auto;html=1;entryX=0.5;entryY=0;entryDx=0;entryDy=0;exitX=0.5;exitY=1;exitDx=0;exitDy=0;" edge="1" parent="1" source="hcxAE1E8VKAEERCTuCJa-91" target="hcxAE1E8VKAEERCTuCJa-12">
          <mxGeometry relative="1" as="geometry">
            <mxPoint x="894" y="970" as="sourcePoint" />
          </mxGeometry>
        </mxCell>
        <mxCell id="hcxAE1E8VKAEERCTuCJa-33" value="Personal Shopper" style="rounded=0;whiteSpace=wrap;html=1;" vertex="1" parent="1">
          <mxGeometry x="414" y="90" width="320" height="20" as="geometry" />
        </mxCell>
        <mxCell id="hcxAE1E8VKAEERCTuCJa-34" value="" style="endArrow=none;html=1;rounded=0;entryX=1;entryY=1;entryDx=0;entryDy=0;" edge="1" parent="1" target="hcxAE1E8VKAEERCTuCJa-16">
          <mxGeometry width="50" height="50" relative="1" as="geometry">
            <mxPoint x="410" y="1080" as="sourcePoint" />
            <mxPoint x="640" y="380" as="targetPoint" />
          </mxGeometry>
        </mxCell>
        <mxCell id="hcxAE1E8VKAEERCTuCJa-42" style="edgeStyle=orthogonalEdgeStyle;rounded=0;orthogonalLoop=1;jettySize=auto;html=1;entryX=0.5;entryY=0;entryDx=0;entryDy=0;" edge="1" parent="1" source="hcxAE1E8VKAEERCTuCJa-37" target="hcxAE1E8VKAEERCTuCJa-38">
          <mxGeometry relative="1" as="geometry">
            <Array as="points">
              <mxPoint x="820" y="310" />
            </Array>
          </mxGeometry>
        </mxCell>
        <mxCell id="hcxAE1E8VKAEERCTuCJa-43" style="edgeStyle=orthogonalEdgeStyle;rounded=0;orthogonalLoop=1;jettySize=auto;html=1;entryX=0.5;entryY=0;entryDx=0;entryDy=0;" edge="1" parent="1" source="hcxAE1E8VKAEERCTuCJa-37" target="hcxAE1E8VKAEERCTuCJa-39">
          <mxGeometry relative="1" as="geometry">
            <Array as="points">
              <mxPoint x="970" y="310" />
            </Array>
          </mxGeometry>
        </mxCell>
        <mxCell id="hcxAE1E8VKAEERCTuCJa-37" value="Primera comanda?" style="rhombus;whiteSpace=wrap;html=1;shadow=0;fontFamily=Helvetica;fontSize=12;align=center;strokeWidth=1;spacing=6;spacingTop=-4;" vertex="1" parent="1">
          <mxGeometry x="844" y="270" width="100" height="80" as="geometry" />
        </mxCell>
        <mxCell id="hcxAE1E8VKAEERCTuCJa-38" value="No fer càrrega per assesorament" style="rounded=1;whiteSpace=wrap;html=1;fontSize=12;glass=0;strokeWidth=1;shadow=0;" vertex="1" parent="1">
          <mxGeometry x="760" y="350" width="120" height="40" as="geometry" />
        </mxCell>
        <mxCell id="hcxAE1E8VKAEERCTuCJa-39" value="Fer càrrega per assesorament" style="rounded=1;whiteSpace=wrap;html=1;fontSize=12;glass=0;strokeWidth=1;shadow=0;" vertex="1" parent="1">
          <mxGeometry x="910" y="350" width="120" height="40" as="geometry" />
        </mxCell>
        <mxCell id="hcxAE1E8VKAEERCTuCJa-45" value="Si" style="text;html=1;align=center;verticalAlign=middle;resizable=0;points=[];autosize=1;strokeColor=none;fillColor=none;" vertex="1" parent="1">
          <mxGeometry x="815" y="280" width="30" height="30" as="geometry" />
        </mxCell>
        <mxCell id="hcxAE1E8VKAEERCTuCJa-46" value="No" style="text;html=1;align=center;verticalAlign=middle;resizable=0;points=[];autosize=1;strokeColor=none;fillColor=none;" vertex="1" parent="1">
          <mxGeometry x="930" y="280" width="40" height="30" as="geometry" />
        </mxCell>
        <mxCell id="hcxAE1E8VKAEERCTuCJa-58" style="edgeStyle=orthogonalEdgeStyle;rounded=0;orthogonalLoop=1;jettySize=auto;html=1;entryX=0.5;entryY=0;entryDx=0;entryDy=0;" edge="1" parent="1" source="hcxAE1E8VKAEERCTuCJa-47" target="hcxAE1E8VKAEERCTuCJa-57">
          <mxGeometry relative="1" as="geometry">
            <Array as="points">
              <mxPoint x="830" y="490" />
            </Array>
          </mxGeometry>
        </mxCell>
        <mxCell id="hcxAE1E8VKAEERCTuCJa-60" style="edgeStyle=orthogonalEdgeStyle;rounded=0;orthogonalLoop=1;jettySize=auto;html=1;" edge="1" parent="1" source="hcxAE1E8VKAEERCTuCJa-47" target="hcxAE1E8VKAEERCTuCJa-59">
          <mxGeometry relative="1" as="geometry" />
        </mxCell>
        <mxCell id="hcxAE1E8VKAEERCTuCJa-47" value="Triar peces de la comanda" style="rounded=1;whiteSpace=wrap;html=1;fontSize=12;glass=0;strokeWidth=1;shadow=0;" vertex="1" parent="1">
          <mxGeometry x="200" y="470" width="120" height="40" as="geometry" />
        </mxCell>
        <mxCell id="hcxAE1E8VKAEERCTuCJa-50" value="" style="endArrow=none;html=1;rounded=0;entryX=0.5;entryY=1;entryDx=0;entryDy=0;" edge="1" parent="1" target="hcxAE1E8VKAEERCTuCJa-38">
          <mxGeometry width="50" height="50" relative="1" as="geometry">
            <mxPoint x="820" y="420" as="sourcePoint" />
            <mxPoint x="640" y="410" as="targetPoint" />
          </mxGeometry>
        </mxCell>
        <mxCell id="hcxAE1E8VKAEERCTuCJa-52" value="" style="endArrow=none;html=1;rounded=0;" edge="1" parent="1">
          <mxGeometry width="50" height="50" relative="1" as="geometry">
            <mxPoint x="970" y="420" as="sourcePoint" />
            <mxPoint x="820" y="420" as="targetPoint" />
            <Array as="points">
              <mxPoint x="900" y="420" />
            </Array>
          </mxGeometry>
        </mxCell>
        <mxCell id="hcxAE1E8VKAEERCTuCJa-53" value="" style="endArrow=none;html=1;rounded=0;entryX=0.5;entryY=1;entryDx=0;entryDy=0;" edge="1" parent="1" target="hcxAE1E8VKAEERCTuCJa-39">
          <mxGeometry width="50" height="50" relative="1" as="geometry">
            <mxPoint x="970" y="420" as="sourcePoint" />
            <mxPoint x="830" y="400" as="targetPoint" />
          </mxGeometry>
        </mxCell>
        <mxCell id="hcxAE1E8VKAEERCTuCJa-54" value="" style="endArrow=none;html=1;rounded=0;" edge="1" parent="1">
          <mxGeometry width="50" height="50" relative="1" as="geometry">
            <mxPoint x="900" y="450" as="sourcePoint" />
            <mxPoint x="900" y="420" as="targetPoint" />
          </mxGeometry>
        </mxCell>
        <mxCell id="hcxAE1E8VKAEERCTuCJa-55" value="" style="endArrow=none;html=1;rounded=0;" edge="1" parent="1">
          <mxGeometry width="50" height="50" relative="1" as="geometry">
            <mxPoint x="260" y="450" as="sourcePoint" />
            <mxPoint x="900" y="450" as="targetPoint" />
          </mxGeometry>
        </mxCell>
        <mxCell id="hcxAE1E8VKAEERCTuCJa-56" value="" style="endArrow=classic;html=1;rounded=0;" edge="1" parent="1">
          <mxGeometry width="50" height="50" relative="1" as="geometry">
            <mxPoint x="260" y="450" as="sourcePoint" />
            <mxPoint x="260" y="470" as="targetPoint" />
          </mxGeometry>
        </mxCell>
        <mxCell id="hcxAE1E8VKAEERCTuCJa-63" style="edgeStyle=orthogonalEdgeStyle;rounded=0;orthogonalLoop=1;jettySize=auto;html=1;entryX=0.5;entryY=0;entryDx=0;entryDy=0;" edge="1" parent="1" source="hcxAE1E8VKAEERCTuCJa-57" target="hcxAE1E8VKAEERCTuCJa-61">
          <mxGeometry relative="1" as="geometry" />
        </mxCell>
        <mxCell id="hcxAE1E8VKAEERCTuCJa-57" value="Nºpeces &amp;gt;= 1?" style="rhombus;whiteSpace=wrap;html=1;shadow=0;fontFamily=Helvetica;fontSize=12;align=center;strokeWidth=1;spacing=6;spacingTop=-4;" vertex="1" parent="1">
          <mxGeometry x="780" y="520" width="100" height="80" as="geometry" />
        </mxCell>
        <mxCell id="hcxAE1E8VKAEERCTuCJa-64" style="edgeStyle=orthogonalEdgeStyle;rounded=0;orthogonalLoop=1;jettySize=auto;html=1;entryX=0.5;entryY=0;entryDx=0;entryDy=0;" edge="1" parent="1" source="hcxAE1E8VKAEERCTuCJa-59" target="hcxAE1E8VKAEERCTuCJa-62">
          <mxGeometry relative="1" as="geometry" />
        </mxCell>
        <mxCell id="hcxAE1E8VKAEERCTuCJa-59" value="Nºpeces == 5?" style="rhombus;whiteSpace=wrap;html=1;shadow=0;fontFamily=Helvetica;fontSize=12;align=center;strokeWidth=1;spacing=6;spacingTop=-4;" vertex="1" parent="1">
          <mxGeometry x="930" y="520" width="100" height="80" as="geometry" />
        </mxCell>
        <mxCell id="hcxAE1E8VKAEERCTuCJa-61" value="Descompte 10€ assesorament" style="rounded=1;whiteSpace=wrap;html=1;fontSize=12;glass=0;strokeWidth=1;shadow=0;" vertex="1" parent="1">
          <mxGeometry x="770" y="630" width="120" height="40" as="geometry" />
        </mxCell>
        <mxCell id="hcxAE1E8VKAEERCTuCJa-62" value="25% descompte&amp;nbsp;" style="rounded=1;whiteSpace=wrap;html=1;fontSize=12;glass=0;strokeWidth=1;shadow=0;" vertex="1" parent="1">
          <mxGeometry x="920" y="630" width="120" height="40" as="geometry" />
        </mxCell>
        <mxCell id="hcxAE1E8VKAEERCTuCJa-65" value="Si" style="text;html=1;align=center;verticalAlign=middle;resizable=0;points=[];autosize=1;strokeColor=none;fillColor=none;" vertex="1" parent="1">
          <mxGeometry x="827" y="598" width="30" height="30" as="geometry" />
        </mxCell>
        <mxCell id="hcxAE1E8VKAEERCTuCJa-68" value="Si" style="text;html=1;align=center;verticalAlign=middle;resizable=0;points=[];autosize=1;strokeColor=none;fillColor=none;" vertex="1" parent="1">
          <mxGeometry x="980" y="598" width="30" height="30" as="geometry" />
        </mxCell>
        <mxCell id="hcxAE1E8VKAEERCTuCJa-69" value="" style="endArrow=none;html=1;rounded=0;" edge="1" parent="1">
          <mxGeometry width="50" height="50" relative="1" as="geometry">
            <mxPoint x="980" y="710" as="sourcePoint" />
            <mxPoint x="830" y="710" as="targetPoint" />
            <Array as="points">
              <mxPoint x="917" y="710" />
            </Array>
          </mxGeometry>
        </mxCell>
        <mxCell id="hcxAE1E8VKAEERCTuCJa-70" value="" style="endArrow=none;html=1;rounded=0;entryX=0.5;entryY=1;entryDx=0;entryDy=0;" edge="1" parent="1" target="hcxAE1E8VKAEERCTuCJa-61">
          <mxGeometry width="50" height="50" relative="1" as="geometry">
            <mxPoint x="830" y="710" as="sourcePoint" />
            <mxPoint x="640" y="660" as="targetPoint" />
          </mxGeometry>
        </mxCell>
        <mxCell id="hcxAE1E8VKAEERCTuCJa-71" value="" style="endArrow=none;html=1;rounded=0;entryX=0.5;entryY=1;entryDx=0;entryDy=0;" edge="1" parent="1" target="hcxAE1E8VKAEERCTuCJa-62">
          <mxGeometry width="50" height="50" relative="1" as="geometry">
            <mxPoint x="980" y="710" as="sourcePoint" />
            <mxPoint x="840" y="680" as="targetPoint" />
          </mxGeometry>
        </mxCell>
        <mxCell id="hcxAE1E8VKAEERCTuCJa-72" value="" style="endArrow=none;html=1;rounded=0;entryX=0;entryY=0.5;entryDx=0;entryDy=0;" edge="1" parent="1" target="hcxAE1E8VKAEERCTuCJa-57">
          <mxGeometry width="50" height="50" relative="1" as="geometry">
            <mxPoint x="760" y="560" as="sourcePoint" />
            <mxPoint x="640" y="660" as="targetPoint" />
          </mxGeometry>
        </mxCell>
        <mxCell id="hcxAE1E8VKAEERCTuCJa-73" value="" style="endArrow=none;html=1;rounded=0;" edge="1" parent="1">
          <mxGeometry width="50" height="50" relative="1" as="geometry">
            <mxPoint x="760" y="710" as="sourcePoint" />
            <mxPoint x="760" y="560" as="targetPoint" />
          </mxGeometry>
        </mxCell>
        <mxCell id="hcxAE1E8VKAEERCTuCJa-74" value="" style="endArrow=none;html=1;rounded=0;" edge="1" parent="1">
          <mxGeometry width="50" height="50" relative="1" as="geometry">
            <mxPoint x="830" y="710" as="sourcePoint" />
            <mxPoint x="760" y="710" as="targetPoint" />
          </mxGeometry>
        </mxCell>
        <mxCell id="hcxAE1E8VKAEERCTuCJa-75" value="" style="endArrow=none;html=1;rounded=0;entryX=1;entryY=0.5;entryDx=0;entryDy=0;" edge="1" parent="1" target="hcxAE1E8VKAEERCTuCJa-59">
          <mxGeometry width="50" height="50" relative="1" as="geometry">
            <mxPoint x="1050" y="560" as="sourcePoint" />
            <mxPoint x="640" y="660" as="targetPoint" />
          </mxGeometry>
        </mxCell>
        <mxCell id="hcxAE1E8VKAEERCTuCJa-76" value="" style="endArrow=none;html=1;rounded=0;" edge="1" parent="1">
          <mxGeometry width="50" height="50" relative="1" as="geometry">
            <mxPoint x="1050" y="710" as="sourcePoint" />
            <mxPoint x="1050" y="560" as="targetPoint" />
          </mxGeometry>
        </mxCell>
        <mxCell id="hcxAE1E8VKAEERCTuCJa-77" value="" style="endArrow=none;html=1;rounded=0;" edge="1" parent="1">
          <mxGeometry width="50" height="50" relative="1" as="geometry">
            <mxPoint x="1050" y="710" as="sourcePoint" />
            <mxPoint x="980" y="710" as="targetPoint" />
          </mxGeometry>
        </mxCell>
        <mxCell id="hcxAE1E8VKAEERCTuCJa-78" value="No" style="text;html=1;align=center;verticalAlign=middle;resizable=0;points=[];autosize=1;strokeColor=none;fillColor=none;" vertex="1" parent="1">
          <mxGeometry x="1025" y="530" width="40" height="30" as="geometry" />
        </mxCell>
        <mxCell id="hcxAE1E8VKAEERCTuCJa-79" value="No" style="text;html=1;align=center;verticalAlign=middle;resizable=0;points=[];autosize=1;strokeColor=none;fillColor=none;" vertex="1" parent="1">
          <mxGeometry x="750" y="530" width="40" height="30" as="geometry" />
        </mxCell>
        <mxCell id="hcxAE1E8VKAEERCTuCJa-88" style="edgeStyle=orthogonalEdgeStyle;rounded=0;orthogonalLoop=1;jettySize=auto;html=1;entryX=0.5;entryY=0;entryDx=0;entryDy=0;" edge="1" parent="1" source="hcxAE1E8VKAEERCTuCJa-80" target="hcxAE1E8VKAEERCTuCJa-86">
          <mxGeometry relative="1" as="geometry" />
        </mxCell>
        <mxCell id="hcxAE1E8VKAEERCTuCJa-80" value="Triar mètode de pagament" style="rounded=1;whiteSpace=wrap;html=1;fontSize=12;glass=0;strokeWidth=1;shadow=0;" vertex="1" parent="1">
          <mxGeometry x="200" y="770" width="120" height="40" as="geometry" />
        </mxCell>
        <mxCell id="hcxAE1E8VKAEERCTuCJa-81" value="" style="endArrow=none;html=1;rounded=0;" edge="1" parent="1">
          <mxGeometry width="50" height="50" relative="1" as="geometry">
            <mxPoint x="910" y="740" as="sourcePoint" />
            <mxPoint x="910" y="710" as="targetPoint" />
          </mxGeometry>
        </mxCell>
        <mxCell id="hcxAE1E8VKAEERCTuCJa-82" value="" style="endArrow=none;html=1;rounded=0;" edge="1" parent="1">
          <mxGeometry width="50" height="50" relative="1" as="geometry">
            <mxPoint x="260" y="740" as="sourcePoint" />
            <mxPoint x="910" y="740" as="targetPoint" />
          </mxGeometry>
        </mxCell>
        <mxCell id="hcxAE1E8VKAEERCTuCJa-84" value="" style="endArrow=classic;html=1;rounded=0;entryX=0.5;entryY=0;entryDx=0;entryDy=0;" edge="1" parent="1" target="hcxAE1E8VKAEERCTuCJa-80">
          <mxGeometry width="50" height="50" relative="1" as="geometry">
            <mxPoint x="260" y="740" as="sourcePoint" />
            <mxPoint x="640" y="540" as="targetPoint" />
          </mxGeometry>
        </mxCell>
        <mxCell id="hcxAE1E8VKAEERCTuCJa-87" style="edgeStyle=orthogonalEdgeStyle;rounded=0;orthogonalLoop=1;jettySize=auto;html=1;entryX=0;entryY=0.5;entryDx=0;entryDy=0;" edge="1" parent="1" source="hcxAE1E8VKAEERCTuCJa-86" target="hcxAE1E8VKAEERCTuCJa-80">
          <mxGeometry relative="1" as="geometry">
            <mxPoint x="190" y="790" as="targetPoint" />
            <Array as="points">
              <mxPoint x="160" y="850" />
              <mxPoint x="160" y="790" />
            </Array>
          </mxGeometry>
        </mxCell>
        <mxCell id="hcxAE1E8VKAEERCTuCJa-92" style="edgeStyle=orthogonalEdgeStyle;rounded=0;orthogonalLoop=1;jettySize=auto;html=1;entryX=0.5;entryY=0;entryDx=0;entryDy=0;" edge="1" parent="1" source="hcxAE1E8VKAEERCTuCJa-86" target="hcxAE1E8VKAEERCTuCJa-91">
          <mxGeometry relative="1" as="geometry">
            <Array as="points">
              <mxPoint x="894" y="910" />
              <mxPoint x="894" y="910" />
            </Array>
          </mxGeometry>
        </mxCell>
        <mxCell id="hcxAE1E8VKAEERCTuCJa-86" value="Error pagament?" style="rhombus;whiteSpace=wrap;html=1;shadow=0;fontFamily=Helvetica;fontSize=12;align=center;strokeWidth=1;spacing=6;spacingTop=-4;" vertex="1" parent="1">
          <mxGeometry x="844" y="810" width="100" height="80" as="geometry" />
        </mxCell>
        <mxCell id="hcxAE1E8VKAEERCTuCJa-89" value="Si" style="text;html=1;align=center;verticalAlign=middle;resizable=0;points=[];autosize=1;strokeColor=none;fillColor=none;" vertex="1" parent="1">
          <mxGeometry x="815" y="850" width="30" height="30" as="geometry" />
        </mxCell>
        <mxCell id="hcxAE1E8VKAEERCTuCJa-91" value="Processar pagament" style="rounded=1;whiteSpace=wrap;html=1;fontSize=12;glass=0;strokeWidth=1;shadow=0;" vertex="1" parent="1">
          <mxGeometry x="834" y="920" width="120" height="40" as="geometry" />
        </mxCell>
        <mxCell id="hcxAE1E8VKAEERCTuCJa-93" value="No" style="text;html=1;align=center;verticalAlign=middle;resizable=0;points=[];autosize=1;strokeColor=none;fillColor=none;" vertex="1" parent="1">
          <mxGeometry x="892" y="890" width="40" height="30" as="geometry" />
        </mxCell>
      </root>
    </mxGraphModel>
  </diagram>
</mxfile>
